<mxfile host="app.diagrams.net" agent="Mozilla/5.0 (Windows NT 10.0; Win64; x64) AppleWebKit/537.36 (KHTML, like Gecko) Chrome/128.0.0.0 Safari/537.36" version="25.0.1">
  <diagram name="Page-1" id="fMB9PXWPGpX6jxN6dePM">
    <mxGraphModel dx="1857" dy="1064" grid="1" gridSize="10" guides="1" tooltips="1" connect="1" arrows="1" fold="1" page="1" pageScale="1" pageWidth="850" pageHeight="1100" math="0" shadow="0">
      <root>
        <mxCell id="0" />
        <mxCell id="1" parent="0" />
        <mxCell id="IjAiu_FBg521aM85jON0-106" value="&lt;font style=&quot;font-size: 18px;&quot;&gt;Employee&lt;/font&gt;" style="rounded=0;whiteSpace=wrap;html=1;" parent="1" vertex="1">
          <mxGeometry x="-180" y="320" width="150" height="60" as="geometry" />
        </mxCell>
        <mxCell id="IjAiu_FBg521aM85jON0-107" value="&lt;u&gt;Emp_ID&lt;/u&gt;" style="ellipse;whiteSpace=wrap;html=1;" parent="1" vertex="1">
          <mxGeometry x="-310" y="260" width="80" height="30" as="geometry" />
        </mxCell>
        <mxCell id="IjAiu_FBg521aM85jON0-108" value="" style="endArrow=none;html=1;rounded=0;entryX=1;entryY=1;entryDx=0;entryDy=0;exitX=0;exitY=0;exitDx=0;exitDy=0;" parent="1" source="IjAiu_FBg521aM85jON0-106" target="IjAiu_FBg521aM85jON0-107" edge="1">
          <mxGeometry width="50" height="50" relative="1" as="geometry">
            <mxPoint x="-180" y="310" as="sourcePoint" />
            <mxPoint x="80" y="460" as="targetPoint" />
          </mxGeometry>
        </mxCell>
        <mxCell id="IjAiu_FBg521aM85jON0-109" value="Fname" style="ellipse;whiteSpace=wrap;html=1;" parent="1" vertex="1">
          <mxGeometry x="-30" y="210" width="80" height="40" as="geometry" />
        </mxCell>
        <mxCell id="IjAiu_FBg521aM85jON0-110" value="&lt;font style=&quot;font-size: 14px;&quot;&gt;Name&lt;/font&gt;" style="ellipse;whiteSpace=wrap;html=1;" parent="1" vertex="1">
          <mxGeometry x="-20" y="280" width="80" height="40" as="geometry" />
        </mxCell>
        <mxCell id="IjAiu_FBg521aM85jON0-111" value="Email" style="ellipse;whiteSpace=wrap;html=1;" parent="1" vertex="1">
          <mxGeometry x="-310" y="350" width="80" height="40" as="geometry" />
        </mxCell>
        <mxCell id="IjAiu_FBg521aM85jON0-112" value="Salary" style="ellipse;whiteSpace=wrap;html=1;" parent="1" vertex="1">
          <mxGeometry x="-320" y="300" width="80" height="30" as="geometry" />
        </mxCell>
        <mxCell id="IjAiu_FBg521aM85jON0-113" value="&lt;font style=&quot;font-size: 14px;&quot;&gt;Lname&lt;/font&gt;" style="ellipse;whiteSpace=wrap;html=1;" parent="1" vertex="1">
          <mxGeometry x="70" y="220" width="80" height="40" as="geometry" />
        </mxCell>
        <mxCell id="IjAiu_FBg521aM85jON0-114" value="" style="endArrow=none;html=1;rounded=0;entryX=0.5;entryY=0;entryDx=0;entryDy=0;exitX=0.5;exitY=1;exitDx=0;exitDy=0;" parent="1" source="IjAiu_FBg521aM85jON0-109" target="IjAiu_FBg521aM85jON0-110" edge="1">
          <mxGeometry width="50" height="50" relative="1" as="geometry">
            <mxPoint x="-20" y="610" as="sourcePoint" />
            <mxPoint x="30" y="560" as="targetPoint" />
          </mxGeometry>
        </mxCell>
        <mxCell id="IjAiu_FBg521aM85jON0-115" value="" style="endArrow=none;html=1;rounded=0;entryX=0.5;entryY=0;entryDx=0;entryDy=0;exitX=0;exitY=1;exitDx=0;exitDy=0;" parent="1" source="IjAiu_FBg521aM85jON0-113" target="IjAiu_FBg521aM85jON0-110" edge="1">
          <mxGeometry width="50" height="50" relative="1" as="geometry">
            <mxPoint x="170" y="270" as="sourcePoint" />
            <mxPoint x="-100" y="440" as="targetPoint" />
          </mxGeometry>
        </mxCell>
        <mxCell id="IjAiu_FBg521aM85jON0-116" value="" style="endArrow=none;html=1;rounded=0;exitX=1;exitY=0.5;exitDx=0;exitDy=0;entryX=0;entryY=0.5;entryDx=0;entryDy=0;" parent="1" source="IjAiu_FBg521aM85jON0-111" target="IjAiu_FBg521aM85jON0-106" edge="1">
          <mxGeometry width="50" height="50" relative="1" as="geometry">
            <mxPoint x="-20" y="610" as="sourcePoint" />
            <mxPoint x="30" y="560" as="targetPoint" />
          </mxGeometry>
        </mxCell>
        <mxCell id="IjAiu_FBg521aM85jON0-117" value="" style="endArrow=none;html=1;rounded=0;exitX=1;exitY=0.5;exitDx=0;exitDy=0;entryX=0;entryY=0.5;entryDx=0;entryDy=0;" parent="1" source="IjAiu_FBg521aM85jON0-112" target="IjAiu_FBg521aM85jON0-106" edge="1">
          <mxGeometry width="50" height="50" relative="1" as="geometry">
            <mxPoint x="-20" y="610" as="sourcePoint" />
            <mxPoint x="30" y="560" as="targetPoint" />
          </mxGeometry>
        </mxCell>
        <mxCell id="IjAiu_FBg521aM85jON0-118" value="" style="endArrow=none;html=1;rounded=0;exitX=0;exitY=0.5;exitDx=0;exitDy=0;entryX=0.75;entryY=0;entryDx=0;entryDy=0;" parent="1" source="IjAiu_FBg521aM85jON0-110" target="IjAiu_FBg521aM85jON0-106" edge="1">
          <mxGeometry width="50" height="50" relative="1" as="geometry">
            <mxPoint x="-20" y="610" as="sourcePoint" />
            <mxPoint x="30" y="560" as="targetPoint" />
          </mxGeometry>
        </mxCell>
        <mxCell id="IjAiu_FBg521aM85jON0-119" value="DateOfBirth" style="ellipse;whiteSpace=wrap;html=1;" parent="1" vertex="1">
          <mxGeometry x="-290" y="220" width="80" height="30" as="geometry" />
        </mxCell>
        <mxCell id="IjAiu_FBg521aM85jON0-120" value="Bouns" style="ellipse;whiteSpace=wrap;html=1;" parent="1" vertex="1">
          <mxGeometry x="-200" y="215" width="70" height="30" as="geometry" />
        </mxCell>
        <mxCell id="IjAiu_FBg521aM85jON0-121" value="Address" style="ellipse;whiteSpace=wrap;html=1;" parent="1" vertex="1">
          <mxGeometry x="-130" y="215" width="80" height="30" as="geometry" />
        </mxCell>
        <mxCell id="IjAiu_FBg521aM85jON0-122" value="&lt;font style=&quot;font-size: 14px;&quot;&gt;Phone_Num&lt;/font&gt;" style="ellipse;whiteSpace=wrap;html=1;" parent="1" vertex="1">
          <mxGeometry x="-110" y="250" width="110" height="30" as="geometry" />
        </mxCell>
        <mxCell id="IjAiu_FBg521aM85jON0-123" value="" style="endArrow=none;html=1;rounded=0;exitX=0.25;exitY=0;exitDx=0;exitDy=0;entryX=1;entryY=1;entryDx=0;entryDy=0;" parent="1" source="IjAiu_FBg521aM85jON0-106" target="IjAiu_FBg521aM85jON0-119" edge="1">
          <mxGeometry width="50" height="50" relative="1" as="geometry">
            <mxPoint x="-20" y="610" as="sourcePoint" />
            <mxPoint x="30" y="560" as="targetPoint" />
          </mxGeometry>
        </mxCell>
        <mxCell id="IjAiu_FBg521aM85jON0-124" value="" style="endArrow=none;html=1;rounded=0;entryX=0.5;entryY=1;entryDx=0;entryDy=0;exitX=0.25;exitY=0;exitDx=0;exitDy=0;" parent="1" source="IjAiu_FBg521aM85jON0-106" target="IjAiu_FBg521aM85jON0-120" edge="1">
          <mxGeometry width="50" height="50" relative="1" as="geometry">
            <mxPoint x="-130" y="300" as="sourcePoint" />
            <mxPoint x="-80" y="250" as="targetPoint" />
            <Array as="points" />
          </mxGeometry>
        </mxCell>
        <mxCell id="IjAiu_FBg521aM85jON0-125" value="" style="endArrow=none;html=1;rounded=0;entryX=0;entryY=1;entryDx=0;entryDy=0;" parent="1" target="IjAiu_FBg521aM85jON0-121" edge="1">
          <mxGeometry width="50" height="50" relative="1" as="geometry">
            <mxPoint x="-140" y="320" as="sourcePoint" />
            <mxPoint x="-60" y="270" as="targetPoint" />
          </mxGeometry>
        </mxCell>
        <mxCell id="IjAiu_FBg521aM85jON0-126" value="" style="endArrow=none;html=1;rounded=0;entryX=0;entryY=1;entryDx=0;entryDy=0;exitX=0.5;exitY=0;exitDx=0;exitDy=0;" parent="1" source="IjAiu_FBg521aM85jON0-106" target="IjAiu_FBg521aM85jON0-122" edge="1">
          <mxGeometry width="50" height="50" relative="1" as="geometry">
            <mxPoint x="-20" y="410" as="sourcePoint" />
            <mxPoint x="30" y="360" as="targetPoint" />
            <Array as="points" />
          </mxGeometry>
        </mxCell>
        <mxCell id="4dRd6ZBPbbuhO65wwHPQ-2" value="&lt;font style=&quot;font-size: 18px;&quot;&gt;Floor&lt;/font&gt;" style="rounded=0;whiteSpace=wrap;html=1;" vertex="1" parent="1">
          <mxGeometry x="410" y="320" width="120" height="60" as="geometry" />
        </mxCell>
        <mxCell id="4dRd6ZBPbbuhO65wwHPQ-3" value="&lt;font style=&quot;font-size: 14px;&quot;&gt;Supervise&lt;/font&gt;" style="rhombus;whiteSpace=wrap;html=1;" vertex="1" parent="1">
          <mxGeometry x="-170" y="460" width="130" height="60" as="geometry" />
        </mxCell>
        <mxCell id="4dRd6ZBPbbuhO65wwHPQ-4" value="" style="endArrow=none;html=1;rounded=0;exitX=0;exitY=1;exitDx=0;exitDy=0;entryX=0;entryY=0.5;entryDx=0;entryDy=0;" edge="1" parent="1" source="IjAiu_FBg521aM85jON0-106" target="4dRd6ZBPbbuhO65wwHPQ-3">
          <mxGeometry width="50" height="50" relative="1" as="geometry">
            <mxPoint x="10" y="520" as="sourcePoint" />
            <mxPoint x="60" y="470" as="targetPoint" />
          </mxGeometry>
        </mxCell>
        <mxCell id="4dRd6ZBPbbuhO65wwHPQ-5" value="" style="endArrow=none;html=1;rounded=0;entryX=1;entryY=1;entryDx=0;entryDy=0;exitX=1;exitY=0.5;exitDx=0;exitDy=0;" edge="1" parent="1" source="4dRd6ZBPbbuhO65wwHPQ-3" target="IjAiu_FBg521aM85jON0-106">
          <mxGeometry width="50" height="50" relative="1" as="geometry">
            <mxPoint x="10" y="520" as="sourcePoint" />
            <mxPoint x="60" y="470" as="targetPoint" />
          </mxGeometry>
        </mxCell>
        <mxCell id="4dRd6ZBPbbuhO65wwHPQ-6" value="Supervisor" style="text;html=1;align=center;verticalAlign=middle;whiteSpace=wrap;rounded=0;rotation=-80;" vertex="1" parent="1">
          <mxGeometry x="-50" y="420" width="60" height="30" as="geometry" />
        </mxCell>
        <mxCell id="4dRd6ZBPbbuhO65wwHPQ-7" value="&lt;font style=&quot;font-size: 18px;&quot;&gt;1&lt;/font&gt;" style="text;html=1;align=center;verticalAlign=middle;whiteSpace=wrap;rounded=0;" vertex="1" parent="1">
          <mxGeometry x="-85" y="380" width="60" height="30" as="geometry" />
        </mxCell>
        <mxCell id="4dRd6ZBPbbuhO65wwHPQ-8" value="&lt;font style=&quot;font-size: 14px;&quot;&gt;M&lt;/font&gt;" style="text;html=1;align=center;verticalAlign=middle;whiteSpace=wrap;rounded=0;" vertex="1" parent="1">
          <mxGeometry x="-180" y="380" width="60" height="30" as="geometry" />
        </mxCell>
        <mxCell id="4dRd6ZBPbbuhO65wwHPQ-9" value="Supervised" style="text;html=1;align=center;verticalAlign=middle;whiteSpace=wrap;rounded=0;rotation=-105;" vertex="1" parent="1">
          <mxGeometry x="-230" y="430" width="60" height="30" as="geometry" />
        </mxCell>
        <mxCell id="4dRd6ZBPbbuhO65wwHPQ-11" value="" style="endArrow=none;html=1;rounded=0;entryX=0.093;entryY=1.047;entryDx=0;entryDy=0;exitX=0.103;exitY=0.361;exitDx=0;exitDy=0;exitPerimeter=0;entryPerimeter=0;" edge="1" parent="1" source="4dRd6ZBPbbuhO65wwHPQ-3" target="IjAiu_FBg521aM85jON0-106">
          <mxGeometry width="50" height="50" relative="1" as="geometry">
            <mxPoint x="-30" y="530" as="sourcePoint" />
            <mxPoint x="20" y="480" as="targetPoint" />
          </mxGeometry>
        </mxCell>
      </root>
    </mxGraphModel>
  </diagram>
</mxfile>
